<svg xmlns="http://www.w3.org/2000/svg" width="36.202" height="49.812" viewBox="0 0 36.202 49.812">
  <g id="Group_234" data-name="Group 234" transform="translate(-47.905 -37.241)">
    <path id="Path_68" data-name="Path 68" d="M741.9,636.162a8.2,8.2,0,0,0,7.951-8.436h-15.9A8.2,8.2,0,0,0,741.9,636.162Z" transform="translate(-675.891 -549.109)" fill="#7d00ff"/>
    <path id="Path_69" data-name="Path 69" d="M729.051,533.983h0c-9.439.233-18.1,6.373-18.1,17.955,0,10.858,10.324,14.646,10.722,18.99h14.758c.4-4.344,10.722-8.131,10.721-18.99C747.151,540.356,738.49,534.217,729.051,533.983Zm.017,27.373a8.827,8.827,0,1,1,8.828-8.828A8.827,8.827,0,0,1,729.068,561.356Z" transform="translate(-663.044 -496.742)" fill="#7d00ff"/>
  </g>
</svg>
