<svg xmlns="http://www.w3.org/2000/svg" width="185.192" height="36.885" viewBox="0 0 185.192 36.885">
  <g id="Group_233" data-name="Group 233" transform="translate(-579.378 -501.828)">
    <path id="Path_54" data-name="Path 54" d="M608.775,536.916a9.974,9.974,0,0,0-2.865-2.193,11.29,11.29,0,0,0-3.378-1.087,16.981,16.981,0,0,0-1.936-.118,16.11,16.11,0,0,0-2.311.158q-1.087.158-1.916.336a11.784,11.784,0,0,0-1.344.356,5.714,5.714,0,0,1-.553.178l-1.264.474a11.237,11.237,0,0,0-3.912-1.383,16.974,16.974,0,0,0-1.936-.118,16.11,16.11,0,0,0-2.311.158q-1.087.158-1.916.336a11.764,11.764,0,0,0-1.343.356,5.754,5.754,0,0,1-.553.178l-1.857.672V554.3h5.571V539.366q.553-.119,1.185-.2a9.933,9.933,0,0,1,1.225-.079q.316,0,.593.02t.514.059a4.929,4.929,0,0,1,2.963,1.5,4.31,4.31,0,0,1,.869,1.422,5.687,5.687,0,0,1,.316,2.015V554.3h5.571V539.366q.553-.119,1.185-.2a9.938,9.938,0,0,1,1.225-.079q.316,0,.573.02t.534.059a4.929,4.929,0,0,1,2.963,1.5,4.313,4.313,0,0,1,.869,1.422,5.674,5.674,0,0,1,.316,2.015V554.3h5.571V544.107a10.365,10.365,0,0,0-.672-3.971A10.155,10.155,0,0,0,608.775,536.916Z" transform="translate(0 -23.629)"/>
    <path id="Path_55" data-name="Path 55" d="M810.231,533.752q-.435-.039-.85-.059t-.81-.02a20.33,20.33,0,0,0-2.628.158q-1.206.158-2.094.336t-1.4.336a3.965,3.965,0,0,1-.593.158l-1.9.632v19.124h5.571v-14.9q.632-.118,1.4-.2a16.166,16.166,0,0,1,1.64-.079q.316,0,.612.02t.612.059a10.959,10.959,0,0,1,1.343.119.438.438,0,0,0,.2.039.035.035,0,0,0,.04.039l.4-1.659,1.027-3.754c-.106-.026-.356-.079-.751-.158A15.236,15.236,0,0,0,810.231,533.752Z" transform="translate(-164.473 -23.745)"/>
    <path id="Path_56" data-name="Path 56" d="M867.737,501.907a12.888,12.888,0,0,0-3.853.988,10.223,10.223,0,0,0-3.22,2.173,10.592,10.592,0,0,0-2.272,3.26,9.18,9.18,0,0,0-.81,4.01v18.334h5.571V518.3h5.532v-5.571h-5.532v-.4a4.39,4.39,0,0,1,.356-1.817,4.928,4.928,0,0,1,1.027-1.462,5.908,5.908,0,0,1,3.714-1.62,5.378,5.378,0,0,1,.652-.039h.652v-5.571h-.889A5.668,5.668,0,0,0,867.737,501.907Z" transform="translate(-207.439)"/>
    <path id="Path_57" data-name="Path 57" d="M913.044,535.635V555h5.611V534.45a21.33,21.33,0,0,0-3.3.494A21.033,21.033,0,0,0,913.044,535.635Z" transform="translate(-248.795 -24.324)"/>
    <path id="Path_58" data-name="Path 58" d="M914.807,501.828a3.078,3.078,0,0,0-2.232.909,3.161,3.161,0,1,0,4.465,0A3.079,3.079,0,0,0,914.807,501.828Z" transform="translate(-247.752)"/>
    <path id="Path_59" data-name="Path 59" d="M967.03,521.362a10.6,10.6,0,0,0-2.272-3.26,9,9,0,0,0-1.818-1.422l3.991-6.322h-6.125l-2.924,4.583h-.2a5.679,5.679,0,0,0-.928-.079h-.889q-.791,0-1.521.059t-1.4.138v-12.92a27.214,27.214,0,0,0-3.26.514,14.8,14.8,0,0,0-2.311.711V530.9h5.571V520.67q.632-.079,1.363-.158a14.628,14.628,0,0,1,1.561-.079h.652a5.336,5.336,0,0,1,.652.039,7,7,0,0,1,2.095.533,5.243,5.243,0,0,1,1.62,1.087,4.859,4.859,0,0,1,1.027,1.482,4.527,4.527,0,0,1,.356,1.837V530.9h5.611v-1.146q0-.631-.02-1.679t.02-2.667A9.706,9.706,0,0,0,967.03,521.362Z" transform="translate(-274.392 -0.232)"/>
    <path id="Path_60" data-name="Path 60" d="M1036.382,535.635V555h5.611V534.45a21.33,21.33,0,0,0-3.3.494A21.018,21.018,0,0,0,1036.382,535.635Z" transform="translate(-340.76 -24.324)"/>
    <path id="Path_61" data-name="Path 61" d="M1038.144,501.828a3.077,3.077,0,0,0-2.233.909,3.161,3.161,0,1,0,4.465,0A3.079,3.079,0,0,0,1038.144,501.828Z" transform="translate(-339.717)"/>
    <path id="Path_62" data-name="Path 62" d="M1080.984,533.752c-.29-.026-.573-.046-.849-.059s-.547-.02-.81-.02a20.334,20.334,0,0,0-2.628.158q-1.206.158-2.094.336t-1.4.336a3.959,3.959,0,0,1-.593.158l-1.9.632v19.124h5.571v-14.9q.632-.118,1.4-.2a16.167,16.167,0,0,1,1.64-.079q.316,0,.613.02c.2.014.4.033.612.059a10.982,10.982,0,0,1,1.344.119.437.437,0,0,0,.2.039.035.035,0,0,0,.04.039l.4-1.659,1.027-3.754c-.106-.026-.355-.079-.751-.158A15.234,15.234,0,0,0,1080.984,533.752Z" transform="translate(-366.358 -23.745)"/>
    <path id="Path_63" data-name="Path 63" d="M1133.757,521.423v-19.44a27.223,27.223,0,0,0-3.26.514,18.754,18.754,0,0,0-2.311.672V521.3a9.121,9.121,0,0,0,.751,3.695,9.612,9.612,0,0,0,5.038,5.038,9.121,9.121,0,0,0,3.695.751v-5.453a3.846,3.846,0,0,1-3.912-3.912Z" transform="translate(-409.213 -0.116)"/>
    <path id="Path_64" data-name="Path 64" d="M1189.8,536.986a9.367,9.367,0,0,0-2.825-2.094,9.131,9.131,0,0,0-3.734-.909h-.4a9.709,9.709,0,0,0-4.05.85,10.35,10.35,0,0,0-3.24,2.272,10.681,10.681,0,0,0-2.153,3.319,10.363,10.363,0,0,0-.79,4.03,9.276,9.276,0,0,0,.81,4.05,10.569,10.569,0,0,0,2.272,3.26,10.206,10.206,0,0,0,3.22,2.173,12.907,12.907,0,0,0,3.892.988q.435.039.889.059t.889.02a19.19,19.19,0,0,0,2.628-.158q1.126-.158,2.47-.474l-1.106-5.453q-1.147.237-2.074.375a12.948,12.948,0,0,1-1.916.138c-.211,0-.429-.006-.652-.02s-.441-.033-.652-.059a5.96,5.96,0,0,1-2.094-.514,5.255,5.255,0,0,1-2.529-2.331h12.841a4.831,4.831,0,0,0,.4-.988,8.566,8.566,0,0,0,.276-1.106,7.764,7.764,0,0,0,.119-1.422,7.889,7.889,0,0,0-.672-3.22A10.39,10.39,0,0,0,1189.8,536.986Zm-11.024,5.295a4.96,4.96,0,0,1,.375-.85,2.754,2.754,0,0,1,.415-.533,4.682,4.682,0,0,1,3.28-1.462c.053,0,.079.014.079.04H1183a4.021,4.021,0,0,1,1.541.356,3.845,3.845,0,0,1,1.186.869,3.955,3.955,0,0,1,.474.672,3.346,3.346,0,0,1,.316.909Z" transform="translate(-442.335 -23.976)"/>
    <path id="Path_65" data-name="Path 65" d="M1269.053,533.949a15.234,15.234,0,0,0-1.817-.2c-.29-.026-.573-.046-.849-.059s-.547-.02-.81-.02a20.334,20.334,0,0,0-2.628.158q-1.206.158-2.094.336t-1.4.336a3.959,3.959,0,0,1-.593.158l-1.9.632v19.124h5.571v-14.9q.632-.118,1.4-.2a16.171,16.171,0,0,1,1.64-.079q.316,0,.613.02c.2.014.4.033.612.059a10.982,10.982,0,0,1,1.344.119.437.437,0,0,0,.2.039.035.035,0,0,0,.04.039l.4-1.659,1.027-3.754C1269.7,534.082,1269.448,534.029,1269.053,533.949Z" transform="translate(-505.234 -23.745)"/>
    <path id="Path_66" data-name="Path 66" d="M738.528,632.587a4.728,4.728,0,0,0,4.582-4.861h-9.165A4.727,4.727,0,0,0,738.528,632.587Z" transform="translate(-115.252 -93.875)" fill="#7d00ff"/>
    <path id="Path_67" data-name="Path 67" d="M721.381,533.983h0c-5.44.134-10.431,3.673-10.431,10.347,0,6.258,5.95,8.44,6.179,10.944h8.505c.229-2.5,6.179-4.686,6.179-10.944C731.812,537.656,726.821,534.118,721.381,533.983Zm.01,15.775a5.087,5.087,0,1,1,5.087-5.087A5.087,5.087,0,0,1,721.391,549.758Z" transform="translate(-98.105 -23.976)" fill="#7d00ff"/>
  </g>
</svg>
